<svg xmlns="http://www.w3.org/2000/svg" width="1200" height="900" viewBox="0 0 1200 900" role="img" aria-label="???????">
  <defs>
    <linearGradient id="bg" x1="0" x2="0" y1="0" y2="1">
      <stop offset="0" stop-color="#f2dfc9"/>
      <stop offset="1" stop-color="#e6c9a6"/>
    </linearGradient>
    <linearGradient id="floor" x1="0" x2="1" y1="0" y2="0">
      <stop offset="0" stop-color="#d7b38b"/>
      <stop offset="1" stop-color="#caa175"/>
    </linearGradient>
    <linearGradient id="windowSky" x1="0" x2="0" y1="0" y2="1">
      <stop offset="0" stop-color="#dff1ff"/>
      <stop offset="1" stop-color="#fff3d8"/>
    </linearGradient>
    <filter id="softShadow" x="-20%" y="-20%" width="140%" height="140%">
      <feGaussianBlur in="SourceAlpha" stdDeviation="12" result="blur"/>
      <feOffset in="blur" dx="0" dy="10" result="off"/>
      <feColorMatrix in="off" type="matrix"
        values="0 0 0 0 0.15  0 0 0 0 0.10  0 0 0 0 0.06  0 0 0 0.35 0" result="shadow"/>
      <feMerge>
        <feMergeNode in="shadow"/>
        <feMergeNode in="SourceGraphic"/>
      </feMerge>
    </filter>
    <filter id="grain" x="-10%" y="-10%" width="120%" height="120%">
      <feTurbulence type="fractalNoise" baseFrequency="0.9" numOctaves="2" stitchTiles="stitch" result="noise"/>
      <feColorMatrix in="noise" type="matrix"
        values="0 0 0 0 0  0 0 0 0 0  0 0 0 0 0  0 0 0 0.12 0" result="alphaNoise"/>
      <feBlend in="SourceGraphic" in2="alphaNoise" mode="overlay"/>
    </filter>
  </defs>

  <!-- Background wall -->
  <rect width="1200" height="900" fill="url(#bg)"/>

  <!-- Window area -->
  <g filter="url(#softShadow)">
    <rect x="630" y="150" width="470" height="430" rx="18" fill="#f4efe6" opacity="0.95"/>
    <rect x="655" y="175" width="420" height="360" rx="12" fill="url(#windowSky)"/>
    <rect x="865" y="175" width="10" height="360" fill="#d8cdbf"/>
    <rect x="655" y="345" width="420" height="8" fill="#d8cdbf" opacity="0.75"/>
    <!-- distant city -->
    <g opacity="0.28" fill="#8aa0b2">
      <rect x="950" y="245" width="35" height="210" rx="6"/>
      <rect x="995" y="280" width="26" height="175" rx="6"/>
      <rect x="925" y="310" width="20" height="145" rx="6"/>
    </g>
    <!-- greenery -->
    <path d="M675 510c60-80 120-110 210-70 55 25 95 25 160-5 20-9 45-14 80-12v112H675z" fill="#8fb28a" opacity="0.45"/>
  </g>

  <!-- Curtains -->
  <g opacity="0.85">
    <path d="M620 155c20 30 25 70 25 120v300c0 30-6 65-18 90h-25V155z" fill="#efe0cc"/>
    <path d="M1110 155c-20 30-25 70-25 120v300c0 30 6 65 18 90h25V155z" fill="#efe0cc"/>
  </g>

  <!-- Floor -->
  <path d="M0 610h1200v290H0z" fill="url(#floor)"/>
  <path d="M0 610h1200" stroke="#b88e66" stroke-width="6" opacity="0.25"/>

  <!-- Rug -->
  <g filter="url(#softShadow)">
    <rect x="190" y="640" width="600" height="200" rx="26" fill="#e8dfd2" opacity="0.95"/>
    <rect x="210" y="660" width="560" height="160" rx="22" fill="#efe8de" opacity="0.9"/>
  </g>

  <!-- Sofa -->
  <g filter="url(#softShadow)">
    <rect x="110" y="350" width="520" height="220" rx="36" fill="#e7d8c7"/>
    <rect x="130" y="380" width="480" height="90" rx="28" fill="#eddcc8" opacity="0.95"/>
    <rect x="110" y="410" width="78" height="150" rx="28" fill="#dfcdb9"/>
    <rect x="552" y="410" width="78" height="150" rx="28" fill="#dfcdb9"/>
    <!-- legs -->
    <rect x="150" y="555" width="18" height="40" rx="6" fill="#b58a62"/>
    <rect x="572" y="555" width="18" height="40" rx="6" fill="#b58a62"/>
  </g>

  <!-- Pillows -->
  <g filter="url(#softShadow)">
    <rect x="195" y="420" width="90" height="70" rx="18" fill="#d1a06c"/>
    <rect x="360" y="415" width="95" height="75" rx="18" fill="#8fa77f"/>
  </g>

  <!-- Coffee table -->
  <g filter="url(#softShadow)">
    <ellipse cx="430" cy="690" rx="165" ry="52" fill="#b7895e" opacity="0.18"/>
    <ellipse cx="430" cy="660" rx="180" ry="58" fill="#d7b085"/>
    <rect x="412" y="690" width="14" height="80" rx="6" fill="#b7895e"/>
    <rect x="318" y="694" width="14" height="78" rx="6" fill="#b7895e"/>
    <rect x="528" y="694" width="14" height="78" rx="6" fill="#b7895e"/>
  </g>

  <!-- Book on table -->
  <g opacity="0.9" filter="url(#softShadow)">
    <rect x="380" y="628" width="120" height="22" rx="8" fill="#f3efe7"/>
    <rect x="390" y="622" width="120" height="22" rx="8" fill="#e7e0d5"/>
  </g>

  <!-- Shelf & lamp -->
  <g filter="url(#softShadow)">
    <rect x="120" y="210" width="220" height="18" rx="9" fill="#b7895e"/>
    <rect x="238" y="235" width="55" height="55" rx="10" fill="#efe8de"/>
    <rect x="170" y="245" width="55" height="65" rx="10" fill="#f2efe7"/>
    <!-- lamp -->
    <rect x="470" y="245" width="18" height="230" rx="9" fill="#b7895e"/>
    <path d="M410 260c40-70 130-70 170 0l-20 10c-30-55-100-55-130 0z" fill="#f2efe7"/>
    <path d="M420 260h150c5 0 10 4 10 9v30c0 10-8 18-18 18H438c-10 0-18-8-18-18v-30c0-5 4-9 9-9z" fill="#efe8de"/>
  </g>

  <!-- Sideboard / cabinet near window -->
  <g filter="url(#softShadow)">
    <rect x="720" y="530" width="330" height="135" rx="18" fill="#caa175"/>
    <rect x="735" y="545" width="205" height="105" rx="14" fill="#d7b085"/>
    <rect x="950" y="545" width="85" height="105" rx="14" fill="#b7895e" opacity="0.9"/>
    <rect x="965" y="595" width="55" height="10" rx="5" fill="#efe8de" opacity="0.85"/>
    <rect x="965" y="612" width="70" height="10" rx="5" fill="#efe8de" opacity="0.85"/>
    <!-- plant -->
    <rect x="1015" y="492" width="52" height="50" rx="14" fill="#e7d8c7"/>
    <path d="M1041 490c-18-40 18-55 35-30-10 0-18 5-20 14 12-12 30-6 32 10-18-12-33-4-35 6 0-20-8-34-12-40z" fill="#86a87e"/>
  </g>

  <!-- Big plant on right -->
  <g filter="url(#softShadow)">
    <rect x="1045" y="560" width="110" height="120" rx="24" fill="#e7d8c7"/>
    <path d="M1100 565c-35-75 35-105 70-60-25 0-42 12-46 30 28-28 70-10 75 22-42-28-75-8-78 8 0-30-10-50-21-60z" fill="#86a87e"/>
    <path d="M1090 575c-25-60-90-45-95-5 25-20 55-15 67 5-30-5-52 12-44 30 18-20 48-18 62 0 0-15 6-20 10-30z" fill="#7ea173"/>
  </g>

  <!-- Subtle film grain -->
  <rect width="1200" height="900" filter="url(#grain)" opacity="0.7"/>
</svg>

